# xmcd
#
# Track frame offsets: 
#        150
#        15007
#        35758
#        62974
#        89296
#        104748
#        117375
#        133329
#        155141
#        169683
#
# Disc length: 2641 seconds
#
# Revision: 2
# Processed by: cddbd v1.5.2PL0 Copyright (c) Steve Scherf et al.
# Submitted via: ExactAudioCopy v0.99pb5
#
DISCID=8a0a4f0a
DTITLE=Mark Lanegan Band - Sing Backwards and Weep [31 August 2010]
DYEAR=2010
DGENRE=Alternative
TTITLE0=When Your Number Isn't Up
TTITLE1=One Way Street
TTITLE2=No Easy Action \\ Miracle
TTITLE3=Wedding Dress
TTITLE4=Don't Forget Me
TTITLE5=Driving Death Valley Blues
TTITLE6=Sleep With Me
TTITLE7=One Hundred Days
TTITLE8=Hit the City
TTITLE9=Fix
EXTD=
EXTT0=
EXTT1=
EXTT2=
EXTT3=
EXTT4=
EXTT5=
EXTT6=
EXTT7=
EXTT8=
EXTT9=
PLAYORDER=
